# xmcd
# Track frame offsets:
# 150
# 22672
# 39840
# 62907
# 87828
# 102801
# 122725
# 138665
# 156049
# 171929
# 196739
#
# Disc length: 2875 seconds
# Revision: 0
# Processed by: cddbd v1.5.2PL0 Copyright (c) Steve Scherf et al.
# Submitted via: VisiTrax 2.11.0.264 - For more info visit www.synapsa.com
#
DISCID=830b390b
DTITLE=Gerry O'Brien - Backbone
DYEAR=2008
DGENRE=
TTITLE0=Junk Male
TTITLE1=Bulldozer Baby
TTITLE2=Danglin On Your String
TTITLE3=Human Dignity
TTITLE4=Roseanna
TTITLE5=If It Weren't For The Money
TTITLE6=Judgement Day
TTITLE7=Make Funk Not War
TTITLE8=Midnight Blues
TTITLE9=Something I Never Done
TTITLE10=Song For Jacqui
EXTD=
EXTT0=
EXTT1=
EXTT2=
EXTT3=
EXTT4=
EXTT5=
EXTT6=
EXTT7=
EXTT8=
EXTT9=
EXTT10=
PLAYORDER=
